<svg width="72" height="78" fill="none" xmlns="http://www.w3.org/2000/svg"><g clip-path="url(#a)"><path d="M36.01 0s1.236 24.693 2.962 30.58c1.776 6.06 3.423 11.31 12.887 13.931C60.85 47 63.138 47.672 63.138 48.716c0 1.232-2.344 1.608-10.945 3.91-3.747 1.003-8.183 2.126-10.187 4.375-2.005 2.248-2.283 3.062-3.925 6.424-.965 1.975-2.136 4.408-2.136 4.408s1.05-2.401 1.941-4.462c1.217-2.814 1.893-4.711 3.73-6.638 2.363-2.478 6.689-3.66 10.411-4.792 3.786-1.15 6.965-2.14 6.986-3.265.027-1.498-4.788-2.622-7.292-3.426-2.13-.683-5.582-1.66-8.17-4.23-2.59-2.57-3.66-5.407-4.865-10.418C36.924 23.262 36.01 0 36.01 0Z" fill="#0CAB4C"/><path d="M35.96 0s.847 20.283 1.349 23.977c.5 3.693 1.085 9.395 2.943 13.39 1.652 3.555 3.694 5.762 7.683 7.266 3.327 1.257 5.051 1.627 7.097 2.69 1.06.55 1.274.785 1.274 1.352 0 .462-.397.857-1.69 1.438-1.083.487-3.987 1.466-7.6 2.71-3.602 1.24-6.011 3.252-6.972 4.938-.96 1.687-1.545 2.932-2.13 4.538-.584 1.606-1.984 5.538-1.984 5.538s.545-2.908 1.067-5.619c.498-2.586 1.103-4.387 1.67-5.54.896-1.827 2.168-3.079 6.116-5.48 2.046-1.246 2.4-1.92 2.4-2.523 0-.603-.71-1.513-1.754-2.234-1.044-.724-3.214-1.808-4.552-3.373-1.336-1.566-1.961-3.454-2.588-5.741-.626-2.29-1.295-8.11-1.587-13.29C36.412 18.858 35.961 0 35.961 0Z" fill="#D1242B"/><path d="M35.911 0s-.196 13.33-.335 18.898c-.102 4.094-.223 12.647-.472 15.136-.25 2.489-.474 7.014-2.255 9.823-1.5 2.364-3.373 2.998-3.34 4.79.026 1.5 1.503 2.597 3.09 4.47 1.033 1.222 1.58 2.667 2.114 4.498.501 1.712 1.004 6.718 1.198 10.225.195-3.507.695-8.512 1.195-10.225.535-1.83 1.081-3.276 2.115-4.498 1.586-1.873 3.06-2.97 3.09-4.47.033-1.792-1.842-2.426-3.341-4.79-1.781-2.81-2.005-7.334-2.255-9.823-.25-2.489-.467-11.042-.557-15.136C36.035 13.116 35.911 0 35.911 0Z" fill="#0187BF"/><path d="M35.811 0s-1.236 24.693-2.961 30.58c-1.776 6.06-3.424 11.31-12.888 13.931C10.972 47 8.684 47.672 8.684 48.716c0 1.232 2.342 1.608 10.944 3.91 3.747 1.003 8.183 2.126 10.188 4.375 2.004 2.248 2.282 3.062 3.924 6.424.965 1.975 2.139 4.408 2.139 4.408s-1.052-2.401-1.944-4.462c-1.217-2.814-1.893-4.711-3.73-6.638-2.363-2.478-6.689-3.66-10.41-4.792-3.787-1.15-6.966-2.14-6.987-3.265-.027-1.498 4.788-2.622 7.293-3.426 2.129-.683 5.58-1.66 8.17-4.23 2.588-2.57 3.66-5.407 4.864-10.418C34.898 23.262 35.811 0 35.811 0Z" fill="#FBB814"/><path d="M35.86 0s-.846 20.283-1.347 23.977c-.5 3.693-1.085 9.395-2.943 13.39-1.653 3.555-3.695 5.762-7.683 7.266-3.328 1.257-5.052 1.627-7.098 2.69-1.06.55-1.273.785-1.273 1.352 0 .462.397.857 1.69 1.438 1.083.487 3.987 1.466 7.599 2.71 3.602 1.24 6.012 3.252 6.973 4.938.96 1.687 1.545 2.932 2.129 4.538.584 1.606 1.988 5.538 1.988 5.538s-.547-2.908-1.069-5.619c-.498-2.586-1.103-4.387-1.67-5.54-.897-1.827-2.168-3.079-6.116-5.48-2.046-1.246-2.4-1.92-2.4-2.523 0-.603.71-1.513 1.754-2.234 1.044-.724 3.214-1.808 4.552-3.373 1.335-1.566 1.961-3.454 2.588-5.741.626-2.29 1.295-8.11 1.587-13.29.29-5.18.74-24.037.74-24.037Z" fill="#F48222"/><path d="M6.977 43.105 0 42.775l.145-4.56 1.51.072-.092 2.917 1.44.068.083-2.61 1.45.068-.083 2.61 2.576.123-.052 1.64v.002ZM8.178 34.6c-.175.625-.447 1.113-.817 1.466-.37.353-.802.575-1.3.667-.499.093-1.031.059-1.6-.1L.496 35.517.94 33.94l4.022 1.13c.458.129.83.112 1.118-.05.285-.163.485-.443.597-.843.112-.396.087-.737-.074-1.023-.161-.286-.47-.493-.928-.622l-4.022-1.13.444-1.583 3.964 1.114c.565.158 1.037.407 1.413.746.377.34.632.755.766 1.25.134.494.113 1.05-.062 1.671h.001Zm1.904-5.252-4.816-2.6-.9 1.61-1.33-.718 2.602-4.663 1.33.718-.899 1.611 4.817 2.6-.805 1.443.001-.001Zm4.291-5.847c-.441.482-.909.8-1.402.956a2.6 2.6 0 0 1-1.48.037c-.494-.13-.961-.388-1.404-.773L7 21.032l1.115-1.215 3.133 2.727c.357.312.702.456 1.035.434.332-.022.64-.187.921-.495.28-.305.412-.619.396-.942-.015-.323-.202-.64-.56-.952l-3.132-2.727 1.118-1.22 3.087 2.69c.44.382.753.805.943 1.268.188.463.23.942.128 1.44-.102.497-.374.984-.812 1.463V23.5Zm3.102-3.245-3.963-5.654 2.38-1.556c.436-.284.864-.466 1.285-.542a2.09 2.09 0 0 1 1.168.098c.358.143.665.395.918.755.195.277.312.557.35.84.04.283.014.555-.079.82-.092.265-.233.51-.424.736l3.23 1.322-1.651 1.079-2.766-1.226-.515.336 1.458 2.08-1.392.91.001.002Zm-.819-4.064.822-.536c.29-.19.479-.394.565-.61.085-.217.045-.446-.124-.686-.17-.243-.372-.37-.607-.383-.235-.013-.498.074-.784.262l-.85.556.98 1.397h-.002Zm6.615.518-2.607-6.34 4.647-1.74.536 1.306-3.08 1.152.485 1.178 2.583-.967.496 1.205-2.584.967.55 1.336 3.117-1.167.541 1.317-4.684 1.754v-.001Zm19.563-2.173 2.424-6.323 1.523.575 1.011 4.946-.632-.234 3.947-3.08 1.517.572-2.424 6.322-1.537-.58 1.72-4.397.244.2-3.124 2.394-1.056-.399-.809-3.877.31.008-1.663 4.418-1.451-.548v.003Zm7.986 3.157 6.328-3.752 1.566 1.174-2.055 6.956-1.52-1.14.449-1.387-2.041-1.53-1.247.789-1.48-1.11Zm3.863-.508 1.423 1.067.737-2.385-2.16 1.318Zm2.447 5.482 5.5-4.084 1.042 1.312-2.345 1.742 3.834.137 1.298 1.637-4.15-.172-1.14 4.522-1.338-1.688.806-2.966-1.156-.096-1.308.971-1.04-1.313-.002-.002Zm4.315 5.837 6.37-2.664 2.048 4.48-1.31.548-1.356-2.97-1.183.495 1.139 2.49-1.21.507-1.14-2.49-1.341.56 1.373 3.006-1.324.555-2.064-4.517h-.002Zm2.477 5.812 6.865-1.103.52 2.774c.096.508.097.965.002 1.371a1.907 1.907 0 0 1-.553.995c-.275.257-.632.42-1.07.49a2.029 2.029 0 0 1-.926-.046 1.894 1.894 0 0 1-.737-.42 2.469 2.469 0 0 1-.523-.69l-2.513 2.3-.361-1.924 2.24-1.929-.114-.601-2.525.406-.304-1.621-.001-.002Zm4.134 1.007.179.956c.063.34.18.592.35.762.17.17.4.23.69.183.296-.046.494-.172.6-.375.105-.202.125-.472.063-.807l-.186-.992-1.696.273Zm-3.391 7.932a4.962 4.962 0 0 1 .316-1.51c.181-.483.43-.887.743-1.209l1.195.854a1.875 1.875 0 0 0-.432.526 3.313 3.313 0 0 0-.432 1.439c-.018.338.025.619.129.838.103.221.265.338.483.352a.555.555 0 0 0 .465-.199c.13-.145.263-.421.398-.833l.201-.582c.237-.697.537-1.191.899-1.48.362-.29.785-.419 1.27-.386.311.02.596.106.853.255.257.15.476.35.658.6.182.25.318.539.409.867.09.329.126.682.106 1.061a4.43 4.43 0 0 1-.309 1.444c-.178.438-.407.786-.687 1.04l-1.152-.88c.138-.116.263-.263.372-.44a2.661 2.661 0 0 0 .386-1.238 1.724 1.724 0 0 0-.055-.574.891.891 0 0 0-.222-.395.555.555 0 0 0-.363-.16.425.425 0 0 0-.296.081.956.956 0 0 0-.24.326 6.102 6.102 0 0 0-.264.634l-.212.59c-.246.694-.536 1.188-.868 1.483-.333.295-.75.425-1.256.39a2.093 2.093 0 0 1-1.15-.413 2.288 2.288 0 0 1-.739-1.004c-.167-.423-.236-.915-.206-1.479v.002ZM6.467 61.874a3.393 3.393 0 0 1-.68-1.628l.944-.236c.034.224.086.432.158.626.073.193.17.37.295.53.26.34.538.54.83.606.296.065.618-.033.97-.292l3.781-2.797.694.904L9.53 62.49a2.15 2.15 0 0 1-1.036.43 1.841 1.841 0 0 1-1.056-.198c-.347-.173-.672-.456-.973-.849l.001.001Zm5.642 6.012c-.486-.41-.812-.846-.978-1.306a2.368 2.368 0 0 1-.086-1.38c.11-.458.337-.886.68-1.285l2.694-3.132.874.736-2.688 3.126c-.39.453-.56.89-.512 1.313.048.423.277.806.685 1.15.408.344.827.506 1.257.487.43-.02.839-.256 1.228-.71l2.69-3.124.877.74-2.695 3.133a3.08 3.08 0 0 1-1.172.864c-.44.18-.903.226-1.39.138-.487-.088-.975-.338-1.463-.75h-.001Zm5.007 3.507 2.95-6.091.983.477 1.104 6.002 2.142-4.424 1 .486-2.949 6.091-.983-.478-1.073-6.051-2.169 4.476-1.006-.488h.002Zm8.024 3.394 1.81-6.528 1.099.316-1.81 6.528-1.098-.316Zm7.268 1.577a4.064 4.064 0 0 1-1.46-.409 3.727 3.727 0 0 1-1.126-.86 3.469 3.469 0 0 1-.866-2.616c.04-.502.17-.959.392-1.37.222-.41.513-.76.874-1.047.36-.287.776-.497 1.243-.632a4.037 4.037 0 0 1 1.503-.125c.53.051 1.013.188 1.452.412.44.225.814.513 1.126.867.312.355.545.755.698 1.2.154.445.21.914.172 1.407-.04.5-.17.956-.392 1.366a3.33 3.33 0 0 1-.877 1.046 3.597 3.597 0 0 1-1.245.634 3.975 3.975 0 0 1-1.495.129l.001-.002Zm.082-1.025c.358.033.696.006 1.014-.082.318-.089.6-.233.848-.431.246-.199.447-.447.602-.741.154-.296.246-.633.276-1.01.04-.506-.037-.957-.232-1.353a2.386 2.386 0 0 0-.845-.96 2.736 2.736 0 0 0-1.267-.432 2.754 2.754 0 0 0-1.014.082 2.366 2.366 0 0 0-.85.428 2.27 2.27 0 0 0-.606.739 2.607 2.607 0 0 0-.276 1.014c-.04.506.037.958.235 1.354.196.397.478.716.845.96.367.242.79.386 1.27.432Zm6.414 1.007L37.77 69.62l2.652-.388c.488-.072.923-.054 1.306.057.383.11.697.298.944.568.246.27.403.61.472 1.02.056.333.031.638-.074.916s-.278.52-.517.723c-.239.204-.53.361-.87.47l2.601 2.573-1.358.199-2.398-2.43-.957.14.459 2.715-1.123.164h-.002Zm.514-3.772 1.343-.198c.454-.066.792-.211 1.012-.433.221-.224.303-.508.244-.853-.06-.356-.219-.616-.479-.782-.26-.166-.615-.215-1.07-.148l-1.422.21.372 2.205v-.001Zm13.646-.189c-.656.325-1.296.478-1.922.459a3.241 3.241 0 0 1-1.72-.542c-.52-.343-.947-.832-1.281-1.47a3.73 3.73 0 0 1-.426-1.396 3.26 3.26 0 0 1 .154-1.344c.146-.43.377-.82.695-1.175a3.9 3.9 0 0 1 1.194-.887c.48-.237.927-.385 1.338-.442.41-.057.802-.043 1.176.041l-.108 1.056c-.29-.08-.59-.097-.9-.052a3.12 3.12 0 0 0-.943.302 2.99 2.99 0 0 0-.87.627 2.21 2.21 0 0 0-.49.804 2.13 2.13 0 0 0-.096.928c.037.327.144.664.325 1.008.245.47.55.824.915 1.063s.769.36 1.21.362c.442.003.901-.115 1.379-.352.318-.157.602-.355.85-.593s.448-.523.599-.858l.898.59a3.7 3.7 0 0 1-.764 1.042 4.8 4.8 0 0 1-1.214.83Zm6.403-4.231c-.481.398-.965.635-1.449.713a2.46 2.46 0 0 1-1.39-.171 3.248 3.248 0 0 1-1.184-.897l-2.733-3.202.865-.714 2.726 3.194c.395.462.806.709 1.237.738.43.032.847-.12 1.25-.455.404-.334.629-.712.672-1.134.044-.422-.131-.863-.526-1.326l-2.727-3.194.869-.718 2.733 3.201c.345.405.575.838.69 1.3.115.46.093.92-.067 1.379-.16.458-.482.886-.966 1.286Zm4.146-4.156-5.54-4.14 1.53-2.017c.3-.395.632-.695 1-.896a2.094 2.094 0 0 1 1.128-.277c.385.018.757.16 1.112.426.368.274.616.584.747.932.131.348.147.722.047 1.123-.1.401-.316.82-.646 1.254l-.838 1.107 2.137 1.596-.677.892Zm-2.221-3.056.848-1.118c.274-.36.41-.697.409-1.01 0-.313-.156-.584-.465-.814-.306-.228-.618-.302-.938-.22-.318.081-.608.296-.87.64l-.854 1.125 1.869 1.396v.001Z" fill="#111820"/></g><defs><clipPath id="a"><path fill="#fff" d="M0 0h72v78H0z"/></clipPath></defs></svg>